<mxfile host="app.diagrams.net" modified="2021-02-12T16:11:39.278Z" agent="5.0 (Windows NT 10.0; Win64; x64) AppleWebKit/537.36 (KHTML, like Gecko) Chrome/88.0.4324.150 Safari/537.36" etag="RPMeJUB7-t-n93bog6Gm" version="14.2.4" type="github">
  <diagram id="RVTW6CrpQOzEqHap7xa_" name="Page-1">
    <mxGraphModel dx="1108" dy="482" grid="0" gridSize="10" guides="1" tooltips="1" connect="1" arrows="1" fold="1" page="1" pageScale="1" pageWidth="827" pageHeight="1169" math="0" shadow="0">
      <root>
        <mxCell id="0" />
        <mxCell id="1" parent="0" />
      </root>
    </mxGraphModel>
  </diagram>
</mxfile>
